Jump_normalized_Motion_pl15
version=1
nRows=8
nColumns=43
inDegrees=yes
endheader
time		pelvis_tilt		pelvis_list		pelvis_rotation		pelvis_tx		pelvis_ty		pelvis_tz		hip_flexion_r		hip_adduction_r		hip_rotation_r		knee_angle_r		ankle_angle_r		subtalar_angle_r		mtp_angle_r		hip_flexion_l		hip_adduction_l		hip_rotation_l		knee_angle_l		ankle_angle_l		subtalar_angle_l		mtp_angle_l		lumbar_extension		lumbar_bending		lumbar_rotation		neck_flexion		neck_lateral_bending		neck_rotation		arm_flex_r		arm_add_r		arm_rot_r		elbow_flex_r		pro_sup_r		wrist_flex_r		wrist_dev_r		hand_finger_flex_r		arm_flex_l		arm_add_l		arm_rot_l		elbow_flex_l		pro_sup_l		wrist_flex_l		wrist_dev_l		hand_finger_flex_l		
1.380833		2.443842		-19.722796		86.229562		0.059203		1.776880		1.743613		75.759317		-1.557181		3.446123		-142.968968		24.231281		7.272637		23.367243		76.143852		-8.106339		11.941052		-144.175251		16.773479		22.005373		32.459294		-43.343518		-0.403090		5.829081		42.976826		1.941257		-4.289861		112.045720		-15.497799		16.687906		68.818318		105.821800		-2.446837		-0.946349		-29.659883		109.095531		-12.235695		22.730727		54.640389		108.903284		-11.128808		-0.246970		-9.846731		
1.384066		2.396707		-19.988340		86.079759		0.059018		1.777480		1.738243		75.240816		-1.484265		3.571294		-142.696281		24.169514		7.282081		23.488232		75.924921		-8.110015		11.865537		-143.918400		15.655698		22.140694		32.493239		-42.746714		-0.406085		5.970883		42.489837		1.869988		-4.241706		112.887131		-14.753603		16.500282		68.408282		105.940012		-2.429975		-0.711667		-29.653320		109.724216		-11.953325		22.646565		54.321804		109.045146		-11.164142		-0.278561		-9.824029		
1.387298		2.330977		-20.276546		85.962140		0.058775		1.778142		1.732658		74.717463		-1.462789		3.703261		-142.396278		24.057848		7.264744		23.617883		75.696036		-8.053801		11.780930		-143.621880		14.651581		22.291481		32.570465		-42.117443		-0.414988		6.092036		42.010144		1.837934		-4.235682		113.583760		-14.149070		16.294702		68.186193		106.180975		-2.331965		-0.555836		-29.604660		110.263399		-11.677137		22.572096		54.072873		109.167694		-11.201046		-0.371591		-9.764191		
1.390530		2.228705		-20.560010		85.833785		0.058556		1.778825		1.726952		74.193957		-1.442074		3.872507		-142.095792		23.895976		7.231610		23.787258		75.475739		-7.976649		11.670055		-143.297332		13.554458		22.464382		32.707508		-41.479158		-0.457382		6.179716		41.521995		1.824528		-4.240293		114.205344		-13.559575		16.052853		67.985006		106.563395		-2.143854		-0.412015		-29.523224		110.756077		-11.399825		22.494626		53.785035		109.294462		-11.277555		-0.515855		-9.663768		
1.393763		1.984031		-20.819405		85.620714		0.058485		1.779652		1.721097		73.680514		-1.431568		4.198657		-141.790000		23.618595		7.194687		24.528129		75.186817		-7.902074		11.395411		-142.891335		12.330475		22.581301		33.703138		-40.860601		-0.668165		6.193690		41.099159		1.880265		-4.267284		114.651592		-12.882673		15.377336		67.891173		108.049486		-1.380532		-0.318576		-29.310278		111.240369		-11.102553		22.473997		53.372344		109.552423		-11.656635		-1.051376		-9.180342		
1.396995		1.774995		-21.078643		85.446326		0.058351		1.780397		1.715146		73.159346		-1.445101		4.473457		-141.467535		23.316386		7.169837		25.204687		74.928002		-7.805545		11.158184		-142.513405		11.153174		22.643225		34.619216		-40.215958		-0.816119		6.194219		40.540380		1.906504		-4.273909		115.066366		-12.254726		14.871926		67.776823		109.255882		-0.738720		-0.230721		-29.187770		111.669725		-10.826868		22.438399		52.964620		109.681201		-12.020254		-1.300004		-8.718349		
1.400227		1.651340		-21.334290		85.330234		0.058144		1.781151		1.709122		72.610403		-1.459052		4.642164		-141.128140		23.039243		7.130039		25.331323		74.743817		-7.713049		11.022639		-142.139178		9.863761		22.738226		34.698546		-39.589390		-0.860938		6.227514		40.009832		1.894011		-4.252944		115.589775		-11.812694		14.881403		67.573080		109.368806		-0.679174		-0.179114		-29.244291		112.033005		-10.603554		22.374491		52.720520		109.604778		-12.200525		-1.164093		-8.651531		
1.403460		1.484459		-21.530631		85.173313		0.058039		1.782054		1.702961		72.004996		-1.458009		4.854070		-140.772607		22.724899		7.074947		25.506701		74.499438		-7.651253		10.819135		-141.721713		8.469295		22.797551		34.837169		-39.026344		-0.973241		6.250595		39.480097		1.890218		-4.228651		116.063142		-11.427029		14.919219		67.387361		109.582911		-0.617607		-0.191318		-29.312192		112.381816		-10.397819		22.372560		52.439822		109.514309		-12.451655		-1.122089		-8.613732		
